<svg width="117" height="71" viewBox="0 0 117 71" fill="none" xmlns="http://www.w3.org/2000/svg">
<path d="M58.3616 0.489746H54.048H46.7667H35.1545H29.3571V6.2872H18.1763V12.0846H12.3098V18.3307H0.335327V35.2917V41.0892V46.8866V47.8528V52.684V58.4815H11.9475V64.2789H23.5596V70.0764H29.3571H35.1718H40.9692H45.2138H52.5814H64.1935H75.8057H87.4178H99.03V58.4642H87.4178H75.8057H70.0082V52.6668H75.8057H87.4178H99.03H110.642V41.0546H99.03H87.4178H75.8057H70.0082V35.2572H75.8057H87.4178H99.03H110.642H116.44V23.645H110.642H99.03H87.4178H75.8057H70.0082V17.8476H75.8057H87.4178H99.03H110.642V6.23543H99.03H87.4178H75.8057H67.0923H64.1935V17.8476V23.645V35.2572V41.0546H52.5814H47.1635V35.2572H40.9692H35.5514H31.5656H40.9692V23.645H31.5656H40.9692V17.8476V12.0501H46.7667V23.6623V35.2744H58.3788V23.6623V12.0501V4.38922V0.489746H58.3616Z" fill="#333333"/>
</svg>
