<svg width="123" height="76" viewBox="0 0 123 76" fill="none" xmlns="http://www.w3.org/2000/svg">
<path d="M57.462 46.4707H64.4672H76.0794H87.6915V58.0829H76.0794H64.4672H57.462H52.8723V46.4707H57.462Z" fill="#333333"/>
<path d="M47.0587 29.0633V17.4512H58.6709V29.0633V32.6695V40.6755H47.0587V32.6695V29.0633Z" fill="#333333"/>
<path d="M47.0575 17.4515H41.26V29.0637V40.6758H47.0575V75.5123H41.26H35.4454H29.6479H23.8332V69.6976H18.0358H12.221V63.9001H0.608887V23.2662H12.221V17.4515H18.0358V11.6541H23.8332H29.6479V5.83936H35.4454H47.0575H58.6696V17.4515H47.0575Z" fill="#333333"/>
<path d="M122.527 11.6522H110.915H105.118V17.4496H99.3031H92.3669H87.691V23.2643H76.0788V29.0618H87.691H93.5057V34.8592H100.666H105.118H110.915V40.6739H122.527V52.2861H110.915V46.4714H105.118H100.666H93.5057V40.6739H87.691H76.0788H71.0578H64.4667V32.2538V23.2643V20.6417V16.8112V11.6522H69.7465H76.0788H87.691V5.83749H92.3669H99.3031V0.0400391H102.754H110.915H122.527V11.6522Z" fill="#333333"/>
<path d="M58.6698 63.8979H70.2819H81.8941V75.5101H70.2819H58.6698H52.8723V63.8979H58.6698Z" fill="#333333"/>
</svg>
