<svg width="138" height="143" viewBox="0 0 138 143" fill="none" xmlns="http://www.w3.org/2000/svg">
<path d="M93.7398 111.482L125.789 55.971L120.238 52.7661L107.462 74.8954L74.1551 55.6659L90.1363 27.9855L79.0342 21.5757L46.985 77.0865L41.4339 73.8816L47.8438 62.7794L42.2927 59.5745L45.4976 54.0234L34.3954 47.6136L27.9856 58.7157L33.5367 61.9206L30.3318 67.4717L35.8828 70.6766L29.473 81.7788L35.0241 84.9837L31.8192 90.5348L37.3702 93.7397L34.1653 99.2908L39.7164 102.496L36.5115 108.047L58.7158 120.866L61.9207 115.315L67.4718 118.52L64.2669 124.071L69.818 127.276L76.2278 116.174L81.7789 119.379L88.1887 108.277L93.7398 111.482Z" fill="white"/>
<rect x="34.1653" y="99.2905" width="6.40983" height="12.8197" transform="rotate(30 34.1653 99.2905)" fill="black"/>
<rect x="34.561" y="106.921" width="27.8914" height="6.40983" transform="rotate(30 34.561 106.921)" fill="black"/>
<rect x="61.9207" y="115.315" width="6.40983" height="6.40983" transform="rotate(30 61.9207 115.315)" fill="black"/>
<rect x="31.8188" y="90.5347" width="6.40983" height="6.40983" transform="rotate(30 31.8188 90.5347)" fill="black"/>
<rect x="29.4729" y="81.7788" width="6.40983" height="6.40983" transform="rotate(30 29.4729 81.7788)" fill="black"/>
<rect x="27.1267" y="73.0227" width="6.40983" height="6.40983" transform="rotate(30 27.1267 73.0227)" fill="black"/>
<rect x="30.3318" y="67.4717" width="6.40983" height="6.40983" transform="rotate(30 30.3318 67.4717)" fill="black"/>
<rect x="27.9854" y="58.7158" width="6.40983" height="6.40983" transform="rotate(30 27.9854 58.7158)" fill="black"/>
<rect x="25.6394" y="49.9597" width="6.40983" height="6.40983" transform="rotate(30 25.6394 49.9597)" fill="black"/>
<rect x="28.8442" y="44.4087" width="6.40983" height="6.40983" transform="rotate(30 28.8442 44.4087)" fill="black"/>
<rect x="37.6003" y="42.0623" width="6.40983" height="6.40983" transform="rotate(30 37.6003 42.0623)" fill="black"/>
<rect x="43.1514" y="45.2676" width="6.40983" height="6.40983" transform="rotate(30 43.1514 45.2676)" fill="black"/>
<rect x="45.4976" y="54.0237" width="6.40983" height="6.40983" transform="rotate(30 45.4976 54.0237)" fill="black"/>
<rect x="51.0486" y="57.228" width="6.40983" height="6.40983" transform="rotate(30 51.0486 57.228)" fill="black"/>
<rect x="47.8435" y="62.7791" width="6.40983" height="6.40983" transform="rotate(30 47.8435 62.7791)" fill="black"/>
<rect x="44.6387" y="68.3306" width="6.40983" height="6.40983" transform="rotate(30 44.6387 68.3306)" fill="black"/>
<rect x="57.4583" y="46.126" width="6.40983" height="6.40983" transform="rotate(30 57.4583 46.126)" fill="black"/>
<rect x="60.6633" y="40.575" width="6.40983" height="6.40983" transform="rotate(30 60.6633 40.575)" fill="black"/>
<rect x="63.8682" y="35.0239" width="6.40983" height="6.40983" transform="rotate(30 63.8682 35.0239)" fill="black"/>
<rect x="67.073" y="29.4729" width="6.40983" height="6.40983" transform="rotate(30 67.073 29.4729)" fill="black"/>
<rect x="70.2781" y="23.9219" width="6.40983" height="6.40983" transform="rotate(30 70.2781 23.9219)" fill="black"/>
<rect x="73.4829" y="18.3706" width="6.40983" height="6.40983" transform="rotate(30 73.4829 18.3706)" fill="black"/>
<rect x="82.239" y="16.0249" width="6.40983" height="6.40983" transform="rotate(30 82.239 16.0249)" fill="black"/>
<rect x="87.79" y="19.2292" width="6.40983" height="6.40983" transform="rotate(30 87.79 19.2292)" fill="black"/>
<rect x="90.1362" y="27.9854" width="6.40983" height="6.40983" transform="rotate(30 90.1362 27.9854)" fill="black"/>
<rect x="86.9312" y="33.5364" width="6.40983" height="6.40983" transform="rotate(30 86.9312 33.5364)" fill="black"/>
<rect x="83.7263" y="39.0879" width="6.40983" height="6.40983" transform="rotate(30 83.7263 39.0879)" fill="black"/>
<rect x="80.5215" y="44.6389" width="6.40983" height="6.40983" transform="rotate(30 80.5215 44.6389)" fill="black"/>
<rect x="77.3164" y="50.1899" width="6.40983" height="6.40983" transform="rotate(30 77.3164 50.1899)" fill="black"/>
<rect x="74.1116" y="55.741" width="6.40983" height="6.40983" transform="rotate(30 74.1116 55.741)" fill="black"/>
<rect x="70.9067" y="61.292" width="6.40983" height="6.40983" transform="rotate(30 70.9067 61.292)" fill="black"/>
<rect x="67.7017" y="66.843" width="6.40983" height="6.40983" transform="rotate(30 67.7017 66.843)" fill="black"/>
<rect x="64.4968" y="72.394" width="6.40983" height="6.40983" transform="rotate(30 64.4968 72.394)" fill="black"/>
<rect x="61.292" y="77.9453" width="6.40983" height="6.40983" transform="rotate(30 61.292 77.9453)" fill="black"/>
<rect x="63.6382" y="86.7014" width="6.40983" height="6.40983" transform="rotate(30 63.6382 86.7014)" fill="black"/>
<rect x="69.1892" y="89.9062" width="6.40983" height="6.40983" transform="rotate(30 69.1892 89.9062)" fill="black"/>
<rect x="80.2915" y="96.3162" width="6.40983" height="6.40983" transform="rotate(30 80.2915 96.3162)" fill="black"/>
<rect x="77.9451" y="87.5598" width="6.40983" height="6.40983" transform="rotate(30 77.9451 87.5598)" fill="black"/>
<rect x="81.1501" y="82.0088" width="6.40983" height="6.40983" transform="rotate(30 81.1501 82.0088)" fill="black"/>
<rect x="84.355" y="76.4578" width="6.40983" height="6.40983" transform="rotate(30 84.355 76.4578)" fill="black"/>
<rect x="87.5598" y="70.9067" width="6.40983" height="6.40983" transform="rotate(30 87.5598 70.9067)" fill="black"/>
<rect x="90.7649" y="65.3557" width="6.40983" height="6.40983" transform="rotate(30 90.7649 65.3557)" fill="black"/>
<rect x="93.9697" y="59.8047" width="6.40983" height="6.40983" transform="rotate(30 93.9697 59.8047)" fill="black"/>
<rect x="99.521" y="63.0095" width="6.40983" height="6.40983" transform="rotate(30 99.521 63.0095)" fill="black"/>
<rect x="105.072" y="66.2146" width="6.40983" height="6.40983" transform="rotate(30 105.072 66.2146)" fill="black"/>
<rect x="108.277" y="60.6636" width="6.40983" height="6.40983" transform="rotate(30 108.277 60.6636)" fill="black"/>
<rect x="111.482" y="55.1121" width="6.40983" height="6.40983" transform="rotate(30 111.482 55.1121)" fill="black"/>
<rect x="114.687" y="49.561" width="6.40983" height="6.40983" transform="rotate(30 114.687 49.561)" fill="black"/>
<rect x="123.443" y="47.2148" width="6.40983" height="6.40983" transform="rotate(30 123.443 47.2148)" fill="black"/>
<rect x="125.789" y="55.9709" width="6.40983" height="6.40983" transform="rotate(30 125.789 55.9709)" fill="black"/>
<rect x="122.584" y="61.522" width="6.40983" height="6.40983" transform="rotate(30 122.584 61.522)" fill="black"/>
<rect x="119.379" y="67.0735" width="6.40983" height="6.40983" transform="rotate(30 119.379 67.0735)" fill="black"/>
<rect x="116.174" y="72.6245" width="6.40983" height="6.40983" transform="rotate(30 116.174 72.6245)" fill="black"/>
<rect x="112.969" y="78.1755" width="6.40983" height="6.40983" transform="rotate(30 112.969 78.1755)" fill="black"/>
<rect x="109.764" y="83.7266" width="6.40983" height="6.40983" transform="rotate(30 109.764 83.7266)" fill="black"/>
<rect x="106.559" y="89.2776" width="6.40983" height="6.40983" transform="rotate(30 106.559 89.2776)" fill="black"/>
<rect x="103.354" y="94.8286" width="6.40983" height="6.40983" transform="rotate(30 103.354 94.8286)" fill="black"/>
<rect x="100.149" y="100.38" width="6.40983" height="6.40983" transform="rotate(30 100.149 100.38)" fill="black"/>
<rect x="96.9446" y="105.931" width="6.40983" height="6.40983" transform="rotate(30 96.9446 105.931)" fill="black"/>
<rect x="101.867" y="71.7656" width="6.40983" height="6.40983" transform="rotate(30 101.867 71.7656)" fill="black"/>
<rect x="98.6621" y="77.3167" width="6.40983" height="6.40983" transform="rotate(30 98.6621 77.3167)" fill="black"/>
<rect x="95.4573" y="82.8677" width="6.40983" height="6.40983" transform="rotate(30 95.4573 82.8677)" fill="black"/>
<rect x="92.2522" y="88.4187" width="6.40983" height="6.40983" transform="rotate(30 92.2522 88.4187)" fill="black"/>
<rect x="89.0474" y="93.9697" width="6.40983" height="6.40983" transform="rotate(30 89.0474 93.9697)" fill="black"/>
<rect x="88.4187" y="56.5996" width="6.40983" height="6.40983" transform="rotate(30 88.4187 56.5996)" fill="black"/>
<rect x="82.8677" y="53.3948" width="6.40983" height="6.40983" transform="rotate(30 82.8677 53.3948)" fill="black"/>
<rect x="54.2534" y="51.677" width="6.40983" height="6.40983" transform="rotate(30 54.2534 51.677)" fill="black"/>
<rect x="84.9836" y="113.828" width="6.40983" height="6.40983" transform="rotate(30 84.9836 113.828)" fill="black"/>
<rect x="88.1885" y="108.277" width="6.40983" height="6.40983" transform="rotate(30 88.1885 108.277)" fill="black"/>
<rect x="64.2668" y="124.071" width="10.3943" height="6.40983" transform="rotate(30 64.2668 124.071)" fill="black"/>
<rect x="76.2278" y="116.174" width="6.40983" height="19.2295" transform="rotate(30 76.2278 116.174)" fill="black"/>
</svg>
