<svg width="138" height="143" viewBox="0 0 138 143" fill="none" xmlns="http://www.w3.org/2000/svg">
<path d="M44.0102 111.482L11.961 55.971L17.5121 52.7661L30.2885 74.8954L63.5949 55.6659L47.6137 27.9855L58.7158 21.5757L90.765 77.0865L96.3161 73.8816L89.9062 62.7794L95.4573 59.5745L92.2524 54.0234L103.355 47.6136L109.764 58.7157L104.213 61.9206L107.418 67.4717L101.867 70.6766L108.277 81.7788L102.726 84.9837L105.931 90.5348L100.38 93.7397L103.585 99.2908L98.0336 102.496L101.239 108.047L79.0342 120.866L75.8293 115.315L70.2782 118.52L73.4831 124.071L67.932 127.276L61.5222 116.174L55.9711 119.379L49.5613 108.277L44.0102 111.482Z" fill="white"/>
<rect width="6.40983" height="12.8197" transform="matrix(-0.866025 0.5 0.5 0.866025 103.585 99.2905)" fill="black"/>
<rect width="27.8914" height="6.40983" transform="matrix(-0.866025 0.5 0.5 0.866025 103.189 106.921)" fill="black"/>
<rect width="6.40983" height="6.40983" transform="matrix(-0.866025 0.5 0.5 0.866025 75.8293 115.315)" fill="black"/>
<rect width="6.40983" height="6.40983" transform="matrix(-0.866025 0.5 0.5 0.866025 105.931 90.5347)" fill="black"/>
<rect width="6.40983" height="6.40983" transform="matrix(-0.866025 0.5 0.5 0.866025 108.277 81.7788)" fill="black"/>
<rect width="6.40983" height="6.40983" transform="matrix(-0.866025 0.5 0.5 0.866025 110.623 73.0227)" fill="black"/>
<rect width="6.40983" height="6.40983" transform="matrix(-0.866025 0.5 0.5 0.866025 107.418 67.4717)" fill="black"/>
<rect width="6.40983" height="6.40983" transform="matrix(-0.866025 0.5 0.5 0.866025 109.765 58.7158)" fill="black"/>
<rect width="6.40983" height="6.40983" transform="matrix(-0.866025 0.5 0.5 0.866025 112.111 49.9597)" fill="black"/>
<rect width="6.40983" height="6.40983" transform="matrix(-0.866025 0.5 0.5 0.866025 108.906 44.4087)" fill="black"/>
<rect width="6.40983" height="6.40983" transform="matrix(-0.866025 0.5 0.5 0.866025 100.15 42.0623)" fill="black"/>
<rect width="6.40983" height="6.40983" transform="matrix(-0.866025 0.5 0.5 0.866025 94.5986 45.2676)" fill="black"/>
<rect width="6.40983" height="6.40983" transform="matrix(-0.866025 0.5 0.5 0.866025 92.2524 54.0237)" fill="black"/>
<rect width="6.40983" height="6.40983" transform="matrix(-0.866025 0.5 0.5 0.866025 86.7014 57.228)" fill="black"/>
<rect width="6.40983" height="6.40983" transform="matrix(-0.866025 0.5 0.5 0.866025 89.9065 62.7791)" fill="black"/>
<rect width="6.40983" height="6.40983" transform="matrix(-0.866025 0.5 0.5 0.866025 93.1113 68.3306)" fill="black"/>
<rect width="6.40983" height="6.40983" transform="matrix(-0.866025 0.5 0.5 0.866025 80.2917 46.126)" fill="black"/>
<rect width="6.40983" height="6.40983" transform="matrix(-0.866025 0.5 0.5 0.866025 77.0867 40.575)" fill="black"/>
<rect width="6.40983" height="6.40983" transform="matrix(-0.866025 0.5 0.5 0.866025 73.8818 35.0239)" fill="black"/>
<rect width="6.40983" height="6.40983" transform="matrix(-0.866025 0.5 0.5 0.866025 70.677 29.4729)" fill="black"/>
<rect width="6.40983" height="6.40983" transform="matrix(-0.866025 0.5 0.5 0.866025 67.4719 23.9219)" fill="black"/>
<rect width="6.40983" height="6.40983" transform="matrix(-0.866025 0.5 0.5 0.866025 64.2671 18.3706)" fill="black"/>
<rect width="6.40983" height="6.40983" transform="matrix(-0.866025 0.5 0.5 0.866025 55.511 16.0249)" fill="black"/>
<rect width="6.40983" height="6.40983" transform="matrix(-0.866025 0.5 0.5 0.866025 49.96 19.2292)" fill="black"/>
<rect width="6.40983" height="6.40983" transform="matrix(-0.866025 0.5 0.5 0.866025 47.6138 27.9854)" fill="black"/>
<rect width="6.40983" height="6.40983" transform="matrix(-0.866025 0.5 0.5 0.866025 50.8188 33.5364)" fill="black"/>
<rect width="6.40983" height="6.40983" transform="matrix(-0.866025 0.5 0.5 0.866025 54.0237 39.0879)" fill="black"/>
<rect width="6.40983" height="6.40983" transform="matrix(-0.866025 0.5 0.5 0.866025 57.2285 44.6389)" fill="black"/>
<rect width="6.40983" height="6.40983" transform="matrix(-0.866025 0.5 0.5 0.866025 60.4336 50.1899)" fill="black"/>
<rect width="6.40983" height="6.40983" transform="matrix(-0.866025 0.5 0.5 0.866025 63.6384 55.741)" fill="black"/>
<rect width="6.40983" height="6.40983" transform="matrix(-0.866025 0.5 0.5 0.866025 66.8433 61.292)" fill="black"/>
<rect width="6.40983" height="6.40983" transform="matrix(-0.866025 0.5 0.5 0.866025 70.0483 66.843)" fill="black"/>
<rect width="6.40983" height="6.40983" transform="matrix(-0.866025 0.5 0.5 0.866025 73.2532 72.394)" fill="black"/>
<rect width="6.40983" height="6.40983" transform="matrix(-0.866025 0.5 0.5 0.866025 76.458 77.9453)" fill="black"/>
<rect width="6.40983" height="6.40983" transform="matrix(-0.866025 0.5 0.5 0.866025 74.1118 86.7014)" fill="black"/>
<rect width="6.40983" height="6.40983" transform="matrix(-0.866025 0.5 0.5 0.866025 68.5608 89.9062)" fill="black"/>
<rect width="6.40983" height="6.40983" transform="matrix(-0.866025 0.5 0.5 0.866025 57.4585 96.3162)" fill="black"/>
<rect width="6.40983" height="6.40983" transform="matrix(-0.866025 0.5 0.5 0.866025 59.8049 87.5598)" fill="black"/>
<rect width="6.40983" height="6.40983" transform="matrix(-0.866025 0.5 0.5 0.866025 56.5999 82.0088)" fill="black"/>
<rect width="6.40983" height="6.40983" transform="matrix(-0.866025 0.5 0.5 0.866025 53.395 76.4578)" fill="black"/>
<rect width="6.40983" height="6.40983" transform="matrix(-0.866025 0.5 0.5 0.866025 50.1902 70.9067)" fill="black"/>
<rect width="6.40983" height="6.40983" transform="matrix(-0.866025 0.5 0.5 0.866025 46.9851 65.3557)" fill="black"/>
<rect width="6.40983" height="6.40983" transform="matrix(-0.866025 0.5 0.5 0.866025 43.7803 59.8047)" fill="black"/>
<rect width="6.40983" height="6.40983" transform="matrix(-0.866025 0.5 0.5 0.866025 38.229 63.0095)" fill="black"/>
<rect width="6.40983" height="6.40983" transform="matrix(-0.866025 0.5 0.5 0.866025 32.678 66.2146)" fill="black"/>
<rect width="6.40983" height="6.40983" transform="matrix(-0.866025 0.5 0.5 0.866025 29.4731 60.6636)" fill="black"/>
<rect width="6.40983" height="6.40983" transform="matrix(-0.866025 0.5 0.5 0.866025 26.2681 55.1121)" fill="black"/>
<rect width="6.40983" height="6.40983" transform="matrix(-0.866025 0.5 0.5 0.866025 23.0632 49.561)" fill="black"/>
<rect width="6.40983" height="6.40983" transform="matrix(-0.866025 0.5 0.5 0.866025 14.3074 47.2148)" fill="black"/>
<rect width="6.40983" height="6.40983" transform="matrix(-0.866025 0.5 0.5 0.866025 11.9612 55.9709)" fill="black"/>
<rect width="6.40983" height="6.40983" transform="matrix(-0.866025 0.5 0.5 0.866025 15.166 61.522)" fill="black"/>
<rect width="6.40983" height="6.40983" transform="matrix(-0.866025 0.5 0.5 0.866025 18.3708 67.0735)" fill="black"/>
<rect width="6.40983" height="6.40983" transform="matrix(-0.866025 0.5 0.5 0.866025 21.5759 72.6245)" fill="black"/>
<rect width="6.40983" height="6.40983" transform="matrix(-0.866025 0.5 0.5 0.866025 24.7808 78.1755)" fill="black"/>
<rect width="6.40983" height="6.40983" transform="matrix(-0.866025 0.5 0.5 0.866025 27.9856 83.7266)" fill="black"/>
<rect width="6.40983" height="6.40983" transform="matrix(-0.866025 0.5 0.5 0.866025 31.1907 89.2776)" fill="black"/>
<rect width="6.40983" height="6.40983" transform="matrix(-0.866025 0.5 0.5 0.866025 34.3955 94.8286)" fill="black"/>
<rect width="6.40983" height="6.40983" transform="matrix(-0.866025 0.5 0.5 0.866025 37.6006 100.38)" fill="black"/>
<rect width="6.40983" height="6.40983" transform="matrix(-0.866025 0.5 0.5 0.866025 40.8054 105.931)" fill="black"/>
<rect width="6.40983" height="6.40983" transform="matrix(-0.866025 0.5 0.5 0.866025 35.8831 71.7656)" fill="black"/>
<rect width="6.40983" height="6.40983" transform="matrix(-0.866025 0.5 0.5 0.866025 39.0879 77.3167)" fill="black"/>
<rect width="6.40983" height="6.40983" transform="matrix(-0.866025 0.5 0.5 0.866025 42.2927 82.8677)" fill="black"/>
<rect width="6.40983" height="6.40983" transform="matrix(-0.866025 0.5 0.5 0.866025 45.4978 88.4187)" fill="black"/>
<rect width="6.40983" height="6.40983" transform="matrix(-0.866025 0.5 0.5 0.866025 48.7026 93.9697)" fill="black"/>
<rect width="6.40983" height="6.40983" transform="matrix(-0.866025 0.5 0.5 0.866025 49.3313 56.5996)" fill="black"/>
<rect width="6.40983" height="6.40983" transform="matrix(-0.866025 0.5 0.5 0.866025 54.8823 53.3948)" fill="black"/>
<rect width="6.40983" height="6.40983" transform="matrix(-0.866025 0.5 0.5 0.866025 83.4966 51.677)" fill="black"/>
<rect width="6.40983" height="6.40983" transform="matrix(-0.866025 0.5 0.5 0.866025 52.7664 113.828)" fill="black"/>
<rect width="6.40983" height="6.40983" transform="matrix(-0.866025 0.5 0.5 0.866025 49.5615 108.277)" fill="black"/>
<rect width="10.3943" height="6.40983" transform="matrix(-0.866025 0.5 0.5 0.866025 73.4832 124.071)" fill="black"/>
<rect width="6.40983" height="19.2295" transform="matrix(-0.866025 0.5 0.5 0.866025 61.5222 116.174)" fill="black"/>
</svg>
