<svg width="115" height="115" viewBox="0 0 115 115" fill="none" xmlns="http://www.w3.org/2000/svg">
<rect width="4.6" height="4.6" transform="matrix(-1 0 0 1 59.8 23.0002)" fill="black"/>
<rect width="4.6" height="4.6" transform="matrix(-1 0 0 1 82.8 32.2002)" fill="black"/>
<rect width="4.6" height="4.6" transform="matrix(-1 0 0 1 92 23.0002)" fill="black"/>
<rect width="4.6" height="4.6" transform="matrix(-1 0 0 1 96.6001 18.3997)" fill="black"/>
<rect width="4.6" height="4.6" transform="matrix(-1 0 0 1 101.2 13.7998)" fill="black"/>
<rect width="4.6" height="4.6" transform="matrix(-1 0 0 1 105.8 9.19995)" fill="black"/>
<rect width="4.6" height="4.6" transform="matrix(-1 0 0 1 13.8 101.2)" fill="black"/>
<rect width="4.6" height="4.6" transform="matrix(-1 0 0 1 18.3999 96.6003)" fill="black"/>
<rect width="4.6" height="4.6" transform="matrix(-1 0 0 1 23 91.9998)" fill="black"/>
<rect width="4.6" height="4.6" transform="matrix(-1 0 0 1 27.6001 87.3999)" fill="black"/>
<rect width="4.6" height="4.6" transform="matrix(-1 0 0 1 36.8 78.2)" fill="black"/>
<rect width="4.6" height="4.6" transform="matrix(4.37114e-08 -1 -1 -4.37114e-08 82.8 82.7998)" fill="black"/>
<rect width="4.6" height="4.6" transform="matrix(4.37114e-08 -1 -1 -4.37114e-08 92 91.9998)" fill="black"/>
<rect width="4.6" height="4.6" transform="matrix(4.37114e-08 -1 -1 -4.37114e-08 96.6001 96.6003)" fill="black"/>
<rect width="4.6" height="4.6" transform="matrix(4.37114e-08 -1 -1 -4.37114e-08 101.2 101.2)" fill="black"/>
<rect width="4.6" height="4.6" transform="matrix(4.37114e-08 -1 -1 -4.37114e-08 105.8 105.8)" fill="black"/>
<rect width="4.6" height="4.6" transform="matrix(4.37114e-08 -1 -1 -4.37114e-08 13.8 13.7998)" fill="black"/>
<rect width="4.6" height="4.6" transform="matrix(4.37114e-08 -1 -1 -4.37114e-08 18.3999 18.3997)" fill="black"/>
<rect width="4.6" height="4.6" transform="matrix(4.37114e-08 -1 -1 -4.37114e-08 23 23.0002)" fill="black"/>
<rect width="4.6" height="4.6" transform="matrix(4.37114e-08 -1 -1 -4.37114e-08 27.6001 27.6001)" fill="black"/>
<rect width="4.6" height="4.6" transform="matrix(4.37114e-08 -1 -1 -4.37114e-08 36.8 36.8)" fill="black"/>
<rect width="4.6" height="4.6" transform="matrix(-1 0 0 1 59.8 87.3999)" fill="black"/>
<rect width="4.6" height="4.6" transform="matrix(4.37114e-08 1 1 -4.37114e-08 23 55.1997)" fill="black"/>
<rect width="4.6" height="4.6" transform="matrix(4.37114e-08 1 1 -4.37114e-08 87.3999 55.1997)" fill="black"/>
<rect width="4.6" height="4.6" transform="matrix(4.37114e-08 1 1 -4.37114e-08 96.6001 55.1997)" fill="black"/>
<rect width="4.6" height="4.6" transform="matrix(4.37114e-08 1 1 -4.37114e-08 101.2 55.1997)" fill="black"/>
<rect width="4.6" height="4.6" transform="matrix(4.37114e-08 1 1 -4.37114e-08 105.8 55.1997)" fill="black"/>
<rect width="4.6" height="4.6" transform="matrix(4.37114e-08 1 1 -4.37114e-08 110.4 55.1997)" fill="black"/>
<rect width="4.6" height="4.6" transform="matrix(4.37114e-08 1 1 -4.37114e-08 0 55.1997)" fill="black"/>
<rect width="4.6" height="4.6" transform="matrix(4.37114e-08 1 1 -4.37114e-08 4.59985 55.1997)" fill="black"/>
<rect width="4.6" height="4.6" transform="matrix(4.37114e-08 1 1 -4.37114e-08 9.19995 55.1997)" fill="black"/>
<rect width="4.6" height="4.6" transform="matrix(4.37114e-08 1 1 -4.37114e-08 13.8 55.1997)" fill="black"/>
<rect width="4.6" height="4.6" transform="matrix(-1 0 0 1 59.8 96.6003)" fill="black"/>
<rect width="4.6" height="4.6" transform="matrix(-1 0 0 1 59.8 101.2)" fill="black"/>
<rect width="4.6" height="4.6" transform="matrix(-1 0 0 1 59.8 105.8)" fill="black"/>
<rect width="4.6" height="4.6" transform="matrix(-1 0 0 1 59.8 110.4)" fill="black"/>
<rect width="4.6" height="4.6" transform="matrix(-1 0 0 1 59.8 0)" fill="black"/>
<rect width="4.6" height="4.6" transform="matrix(-1 0 0 1 59.8 4.59985)" fill="black"/>
<rect width="4.6" height="4.6" transform="matrix(-1 0 0 1 59.8 9.19995)" fill="black"/>
<rect width="4.6" height="4.6" transform="matrix(-1 0 0 1 59.8 13.7998)" fill="black"/>
</svg>
