<svg width="46" height="15" viewBox="0 0 46 15" fill="none" xmlns="http://www.w3.org/2000/svg">
<path d="M7.24954 3.64456C6.79624 3.49669 6.25613 3.42276 5.62921 3.42276C4.03781 3.42276 3.24211 4.55487 3.24211 6.8191C3.24211 8.94471 4.06192 10.0075 5.70155 10.0075C6.12592 10.0075 6.56476 9.92895 7.01807 9.77184C7.48102 9.60549 7.83788 9.43914 8.08865 9.27279L8.45033 9.03712L9.24603 10.2848C9.20745 10.3217 9.14958 10.3772 9.07242 10.4511C8.99526 10.5158 8.82648 10.6359 8.56606 10.8115C8.3153 10.9871 8.05007 11.1396 7.77037 11.269C7.49067 11.3984 7.13863 11.5185 6.71426 11.6294C6.29953 11.7403 5.87998 11.7958 5.4556 11.7958C3.97994 11.7958 2.83703 11.3799 2.02686 10.5482C1.22634 9.70715 0.82608 8.48724 0.82608 6.88842C0.82608 5.27111 1.26492 4.00037 2.1426 3.07619C3.02028 2.15202 4.2066 1.68993 5.70155 1.68993C6.22237 1.68993 6.76248 1.74538 7.32188 1.85628C7.88128 1.95794 8.31048 2.06422 8.60947 2.17512L9.07242 2.34147L9.00008 4.97537H7.58229L7.24954 3.64456Z" fill="white"/>
<path d="M9.94398 0.996796L13.2859 0.885895V10.1739L14.6603 10.5204V11.6294H9.94398V10.5204L11.1014 10.1739V2.38306L9.94398 2.10581V0.996796Z" fill="white"/>
<path d="M15.171 4.25452L18.455 4.14361V10.1739L19.4678 10.5204V11.6294H15.171V10.5204L16.3284 10.1739V5.64078L15.171 5.36353V4.25452ZM16.0535 1.85628C16.0535 1.47737 16.174 1.17701 16.4152 0.955208C16.6659 0.724165 16.9601 0.608643 17.2977 0.608643C18.1078 0.608643 18.5129 1.02452 18.5129 1.85628C18.5129 2.24443 18.3875 2.55403 18.1368 2.78508C17.8956 3.00688 17.6159 3.11778 17.2977 3.11778C16.9022 3.11778 16.5936 3.0115 16.3718 2.79894C16.1596 2.57714 16.0535 2.26292 16.0535 1.85628Z" fill="white"/>
<path d="M26.3296 9.41141L27.0529 10.5897C26.1174 11.3753 25.0806 11.7681 23.9425 11.7681C22.7561 11.7681 21.8302 11.4354 21.1647 10.77C20.5089 10.1045 20.181 9.18037 20.181 7.99743C20.181 6.75903 20.5282 5.78403 21.2226 5.07241C21.9267 4.3608 22.9056 4.00499 24.1595 4.00499C24.526 4.00499 24.9214 4.04658 25.3458 4.12975C25.7702 4.20369 26.1029 4.28224 26.344 4.36542L26.6912 4.49018L26.6189 6.74979H25.3168L25.1143 5.75168C24.8346 5.67775 24.5019 5.64078 24.1161 5.64078C23.576 5.64078 23.1564 5.81637 22.8574 6.16756C22.5681 6.5095 22.4234 7.02704 22.4234 7.72017C22.4234 8.50572 22.5729 9.10644 22.8719 9.52232C23.1805 9.9382 23.6338 10.1461 24.2318 10.1461C24.4247 10.1461 24.608 10.1323 24.7816 10.1045C24.9552 10.0676 25.124 10.0168 25.2879 9.95206C25.4519 9.88737 25.5773 9.83192 25.6641 9.78571C25.7605 9.7395 25.8859 9.67018 26.0402 9.57777C26.2042 9.48535 26.3006 9.4299 26.3296 9.41141Z" fill="white"/>
<path d="M28.0302 10.5482C28.0302 10.1692 28.1507 9.86888 28.3918 9.64708C28.6426 9.41604 28.9368 9.30051 29.2743 9.30051C29.6698 9.30051 29.9688 9.41141 30.1713 9.63322C30.3835 9.84578 30.4896 10.1508 30.4896 10.5482C30.4896 10.9363 30.369 11.2459 30.1279 11.4769C29.8868 11.6987 29.5926 11.8096 29.2454 11.8096C28.85 11.8096 28.5462 11.7034 28.334 11.4908C28.1314 11.269 28.0302 10.9548 28.0302 10.5482Z" fill="white"/>
<path d="M31.6861 0.996796L35.028 0.885895V10.1739L36.4024 10.5204V11.6294H31.6861V10.5204L32.8435 10.1739V2.38306L31.6861 2.10581V0.996796Z" fill="white"/>
<path d="M39.8934 11.6433L37.3182 5.54374L36.5514 5.32194V4.21293L40.4142 4.14361V5.32194L39.604 5.46056L40.8916 9.3421L42.1213 5.50215L41.2822 5.32194V4.21293L45.1739 4.14361V5.32194L44.2769 5.50215L42.1502 11.1858C41.9381 11.7311 41.7355 12.1886 41.5426 12.5582C41.3594 12.9371 41.1134 13.3253 40.8048 13.7227C40.4962 14.1293 40.1248 14.4343 39.6908 14.6376C39.2568 14.8502 38.7649 14.9565 38.2152 14.9565L36.8118 14.8456L37.0144 13.3623H37.9547C38.2248 13.3623 38.4707 13.3022 38.6926 13.1821C38.9241 13.0712 39.1169 12.9048 39.2713 12.683C39.4352 12.4704 39.5558 12.2948 39.6329 12.1562C39.7101 12.0176 39.7969 11.8466 39.8934 11.6433Z" fill="white"/>
</svg>
