<svg width="39" height="39" viewBox="0 0 39 39" fill="none" xmlns="http://www.w3.org/2000/svg">
<g filter="url(#filter0_d)">
<circle cx="19.5" cy="15.5" r="15.5" fill="white"/>
</g>
<g opacity="0.4">
<path d="M19.401 10.1511H18.7324H17.6038H15.8039H14.9053V11.0497H13.1723V11.9483H12.263V12.9165H10.4069V15.5454V16.444V17.3426V17.4924V18.2412V19.1398H12.2068V20.0384H14.0067V20.9371H14.9053H15.8066H16.7052H17.3631H18.5051H20.3049H22.1048H23.9047H25.7046V19.1372H23.9047H22.1048H21.2062V18.2386H22.1048H23.9047H25.7046H27.5045V16.4387H25.7046H23.9047H22.1048H21.2062V15.5401H22.1048H23.9047H25.7046H27.5045H28.4031V13.7402H27.5045H25.7046H23.9047H22.1048H21.2062V12.8416H22.1048H23.9047H25.7046H27.5045V11.0417H25.7046H23.9047H22.1048H20.7542H20.3049V12.8416V13.7402V15.5401V16.4387H18.5051H17.6653V15.5401H16.7052H15.8654H15.2476H16.7052V13.7402V12.8416V11.943H17.6038V13.7429V15.5428H19.4037V13.7429V11.943V10.7555V10.1511H19.401Z" fill="#333333"/>
</g>
<defs>
<filter id="filter0_d" x="0" y="0" width="39" height="39" filterUnits="userSpaceOnUse" color-interpolation-filters="sRGB">
<feFlood flood-opacity="0" result="BackgroundImageFix"/>
<feColorMatrix in="SourceAlpha" type="matrix" values="0 0 0 0 0 0 0 0 0 0 0 0 0 0 0 0 0 0 127 0"/>
<feOffset dy="4"/>
<feGaussianBlur stdDeviation="2"/>
<feColorMatrix type="matrix" values="0 0 0 0 0 0 0 0 0 0 0 0 0 0 0 0 0 0 0.25 0"/>
<feBlend mode="normal" in2="BackgroundImageFix" result="effect1_dropShadow"/>
<feBlend mode="normal" in="SourceGraphic" in2="effect1_dropShadow" result="shape"/>
</filter>
</defs>
</svg>
