<svg width="100" height="100" viewBox="0 0 95 90" fill="none" xmlns="http://www.w3.org/2000/svg">
<path d="M79.726 25.0295L78.6245 31.2769L84.8718 32.3785L80.4655 57.3678L74.2182 56.2662L73.1181 62.5051L79.3654 63.6067L78.2639 69.854L65.7692 67.6509L64.6676 73.8982L52.1729 71.6951L51.0714 77.9424L32.3294 74.6377L33.4309 68.3903L27.1921 67.2902L26.0905 73.5376L19.8431 72.436L20.9447 66.1887L27.1921 67.2902L28.2936 61.0429L34.5325 62.143L35.6341 55.8957L29.3937 54.804L28.2936 61.0429L15.799 58.8398L16.899 52.6009L29.3937 54.804L30.4953 48.5567L36.7342 49.6568L37.8357 43.4095L44.0831 44.511L45.1846 38.2637L51.432 39.3653L49.2288 51.8599L55.4762 52.9615L54.3761 59.2004L60.615 60.3005L61.7235 54.0631L55.4762 52.9615L57.6793 40.4668L51.432 39.3653L52.5336 33.1179L58.7809 34.2195L59.8825 27.9722L53.6351 26.8706L52.5336 33.1179L46.2862 32.0164L45.1846 38.2637L32.6984 36.062L30.4953 48.5567L18.0006 46.3535L20.2038 33.8589L32.6984 36.062L36.0032 17.32L42.242 18.4201L43.3436 12.1728L74.5803 17.6806L73.4787 23.928L79.726 25.0295Z" fill="white"/>
<path d="M17.2614 14.0149L29.7561 16.218L27.553 28.7127L15.0583 26.5096L17.2614 14.0149Z" fill="white"/>
<path d="M74.5804 17.6807L80.8278 18.7822L79.7262 25.0296L73.4788 23.928L74.5804 17.6807Z" fill="#000201"/>
<path d="M79.7261 25.029L85.9734 26.1306L84.8718 32.3779L78.6245 31.2764L79.7261 25.029Z" fill="#000201"/>
<path d="M85.9736 26.1306L92.2209 27.2322L91.1194 33.4795L84.872 32.3779L85.9736 26.1306Z" fill="#000201"/>
<path d="M84.8721 32.3782L91.1194 33.4797L90.0178 39.7271L83.7705 38.6255L84.8721 32.3782Z" fill="#000201"/>
<path d="M83.7704 38.6257L90.0177 39.7273L88.9161 45.9746L82.6688 44.873L83.7704 38.6257Z" fill="#000201"/>
<path d="M82.6688 44.8733L88.9161 45.9749L87.8146 52.2222L81.5672 51.1206L82.6688 44.8733Z" fill="#000201"/>
<path d="M81.5674 51.1201L87.8147 52.2217L86.7131 58.469L80.4658 57.3674L81.5674 51.1201Z" fill="#000201"/>
<path d="M74.2182 56.2661L80.4656 57.3677L79.364 63.615L73.1167 62.5134L74.2182 56.2661Z" fill="#000201"/>
<path d="M79.3657 63.6062L85.613 64.7078L84.5115 70.9551L78.2641 69.8535L79.3657 63.6062Z" fill="#000201"/>
<path d="M78.2641 69.8535L84.5115 70.9551L83.4099 77.2024L77.1626 76.1008L78.2641 69.8535Z" fill="#000201"/>
<path d="M72.0166 68.7519L78.2639 69.8535L77.1623 76.1008L70.915 74.9993L72.0166 68.7519Z" fill="#000201"/>
<path d="M65.7694 67.6504L72.0167 68.752L70.9152 74.9993L64.6678 73.8977L65.7694 67.6504Z" fill="#000201"/>
<path d="M58.4205 72.7964L64.6678 73.8979L63.5663 80.1453L57.3189 79.0437L58.4205 72.7964Z" fill="#000201"/>
<path d="M52.173 71.6948L58.4203 72.7964L57.3187 79.0437L51.0714 77.9422L52.173 71.6948Z" fill="#000201"/>
<path d="M44.8243 76.8401L51.0717 77.9417L49.9701 84.189L43.7227 83.0874L44.8243 76.8401Z" fill="#000201"/>
<path d="M38.577 75.7385L44.8243 76.8401L43.7228 83.0874L37.4754 81.9858L38.577 75.7385Z" fill="#000201"/>
<path d="M32.3298 74.637L38.5771 75.7385L37.4756 81.9858L31.2282 80.8843L32.3298 74.637Z" fill="#000201"/>
<path d="M26.0823 73.5354L32.3296 74.637L31.228 80.8843L24.9807 79.7827L26.0823 73.5354Z" fill="#000201"/>
<path d="M19.8434 72.4353L26.0907 73.5369L24.9891 79.7842L18.7418 78.6826L19.8434 72.4353Z" fill="#000201"/>
<path d="M14.6976 65.0869L20.9449 66.1885L19.8434 72.4358L13.596 71.3343L14.6976 65.0869Z" fill="#000201"/>
<path d="M15.7992 58.8393L22.0465 59.9409L20.9449 66.1882L14.6976 65.0867L15.7992 58.8393Z" fill="#000201"/>
<path d="M10.652 51.4995L16.8993 52.6011L15.7977 58.8484L9.55039 57.7468L10.652 51.4995Z" fill="#000201"/>
<path d="M11.7536 45.2519L18.001 46.3535L16.8994 52.6009L10.6521 51.4993L11.7536 45.2519Z" fill="#000201"/>
<path d="M18.0008 46.3535L24.2482 47.4551L23.1466 53.7024L16.8993 52.6009L18.0008 46.3535Z" fill="#000201"/>
<path d="M24.248 47.4551L30.4954 48.5566L29.3938 54.804L23.1465 53.7024L24.248 47.4551Z" fill="#000201"/>
<path d="M22.0465 59.9409L28.2938 61.0425L27.1923 67.2898L20.9449 66.1882L22.0465 59.9409Z" fill="#000201"/>
<path d="M69.4348 10.3315L75.6821 11.4331L74.5806 17.6804L68.3332 16.5789L69.4348 10.3315Z" fill="#000201"/>
<path d="M63.1872 9.22997L69.4346 10.3315L68.333 16.5789L62.0857 15.4773L63.1872 9.22997Z" fill="#000201"/>
<path d="M56.94 8.12841L63.1874 9.22998L62.0858 15.4773L55.8385 14.3757L56.94 8.12841Z" fill="#000201"/>
<path d="M50.6927 7.02684L56.9401 8.12842L55.8385 14.3758L49.5912 13.2742L50.6927 7.02684Z" fill="#000201"/>
<path d="M44.4455 5.92528L50.6929 7.02686L49.5913 13.2742L43.344 12.1726L44.4455 5.92528Z" fill="#000201"/>
<path d="M37.0964 11.071L43.3438 12.1726L42.2422 18.4199L35.9948 17.3184L37.0964 11.071Z" fill="#000201"/>
<path d="M29.756 16.218L36.0033 17.3196L34.9017 23.5669L28.6544 22.4653L29.756 16.218Z" fill="#000201"/>
<path d="M28.6544 22.4656L34.9017 23.5671L33.8002 29.8145L27.5528 28.7129L28.6544 22.4656Z" fill="#000201"/>
<path d="M32.6902 36.0605L38.9375 37.1621L37.8359 43.4095L31.5886 42.3079L32.6902 36.0605Z" fill="#000201"/>
<path d="M27.5527 28.7131L33.8 29.8147L32.6985 36.062L26.4511 34.9604L27.5527 28.7131Z" fill="#000201"/>
<path d="M31.5886 42.3076L37.8359 43.4092L36.7344 49.6565L30.487 48.5549L31.5886 42.3076Z" fill="#000201"/>
<path d="M29.3869 54.7934L35.6343 55.895L34.5327 62.1424L28.2854 61.0408L29.3869 54.7934Z" fill="#000201"/>
<path d="M27.1838 67.2886L33.4312 68.3901L32.3296 74.6375L26.0822 73.5359L27.1838 67.2886Z" fill="#000201"/>
<path d="M38.9376 37.1623L45.1849 38.2639L44.0834 44.5113L37.836 43.4097L38.9376 37.1623Z" fill="#000201"/>
<path d="M46.2865 32.0163L52.5338 33.1179L51.4322 39.3652L45.1849 38.2637L46.2865 32.0163Z" fill="#000201"/>
<path d="M51.4321 39.3655L57.6794 40.467L56.5779 46.7144L50.3305 45.6128L51.4321 39.3655Z" fill="#000201"/>
<path d="M50.3305 45.6123L56.5779 46.7139L55.4763 52.9612L49.229 51.8596L50.3305 45.6123Z" fill="#000201"/>
<path d="M55.4762 52.9614L61.7235 54.063L60.6219 60.3103L54.3746 59.2088L55.4762 52.9614Z" fill="#000201"/>
<path d="M53.6354 26.8704L59.8827 27.9719L58.7811 34.2193L52.5338 33.1177L53.6354 26.8704Z" fill="#000201"/>
<path d="M30.8575 9.97094L37.1049 11.0725L36.0033 17.3198L29.756 16.2183L30.8575 9.97094Z" fill="#000201"/>
<path d="M24.6102 8.86937L30.8575 9.97095L29.756 16.2183L23.5086 15.1167L24.6102 8.86937Z" fill="#000201"/>
<path d="M18.363 7.76806L24.6104 8.86963L23.5088 15.117L17.2614 14.0154L18.363 7.76806Z" fill="#000201"/>
<path d="M11.0143 12.9133L17.2616 14.0149L16.16 20.2622L9.91269 19.1607L11.0143 12.9133Z" fill="#000201"/>
<path d="M9.9127 19.1609L16.16 20.2625L15.0585 26.5098L8.81112 25.4082L9.9127 19.1609Z" fill="#000201"/>
<path d="M15.0583 26.51L21.3057 27.6116L20.2041 33.8589L13.9568 32.7573L15.0583 26.51Z" fill="#000201"/>
<path d="M13.9566 32.7573L20.204 33.8589L19.1024 40.1062L12.8551 39.0047L13.9566 32.7573Z" fill="#000201"/>
<path d="M12.8552 39.0044L19.1025 40.106L18.001 46.3533L11.7536 45.2517L12.8552 39.0044Z" fill="#000201"/>
<path d="M21.3055 27.6116L27.5529 28.7131L26.4513 34.9605L20.204 33.8589L21.3055 27.6116Z" fill="#000201"/>
</svg>
