<svg width="39" height="39" viewBox="0 0 39 39" fill="none" xmlns="http://www.w3.org/2000/svg">
<g filter="url(#filter0_d)">
<circle cx="19.5" cy="15.5" r="15.5" fill="white"/>
</g>
<g opacity="0.4">
<path d="M22.0782 19.1509H22.712H24.5119H25.4105V20.9508H24.5119H22.712H22.0782H20.9121V19.1509H22.0782Z" fill="#333333"/>
<path d="M21.8856 16.4497H22.712H24.5119H26.3118V18.2496H24.5119H22.712H21.8856H20.9121V16.4497H21.8856Z" fill="#333333"/>
<path d="M23.6827 11.05H24.5117H26.3116V12.8499H24.5117H23.6827H22.7119V11.05H23.6827Z" fill="#333333"/>
<path d="M24.5117 13.7507H25.2873H26.3116V15.5506H25.2873H24.5117H22.7119V13.7507H24.5117Z" fill="#333333"/>
<path d="M21.8133 11.951V13.7509V14.3553V15.5508H20.0134V14.3553V13.7509V11.951H19.1122V15.5508H20.0134V17.3507V19.1505V20.9504H18.2136H16.4137V20.0491H14.6138V19.1505H12.8139V12.8496H14.6138V11.951H15.5124V11.0497H16.4137H17.3123V10.1511H18.2136H20.0134H20.682H21.8133V11.951Z" fill="#333333"/>
</g>
<defs>
<filter id="filter0_d" x="0" y="0" width="39" height="39" filterUnits="userSpaceOnUse" color-interpolation-filters="sRGB">
<feFlood flood-opacity="0" result="BackgroundImageFix"/>
<feColorMatrix in="SourceAlpha" type="matrix" values="0 0 0 0 0 0 0 0 0 0 0 0 0 0 0 0 0 0 127 0"/>
<feOffset dy="4"/>
<feGaussianBlur stdDeviation="2"/>
<feColorMatrix type="matrix" values="0 0 0 0 0 0 0 0 0 0 0 0 0 0 0 0 0 0 0.25 0"/>
<feBlend mode="normal" in2="BackgroundImageFix" result="effect1_dropShadow"/>
<feBlend mode="normal" in="SourceGraphic" in2="effect1_dropShadow" result="shape"/>
</filter>
</defs>
</svg>
