<svg width="88" height="71" viewBox="0 0 88 71" fill="none" xmlns="http://www.w3.org/2000/svg">
<path d="M60.6325 58.5522H64.7218H76.3339H82.1314V70.1644H76.3339H64.7218H60.6325H53.1096V58.5522H60.6325Z" fill="#333333"/>
<path d="M59.3902 41.1274H64.7218H76.3339H87.9461V52.7396H76.3339H64.7218H59.3902H53.1096V41.1274H59.3902Z" fill="#333333"/>
<path d="M70.9846 6.28906H76.3335H87.9456V17.9012H76.3335H70.9846H64.7213V6.28906H70.9846Z" fill="#333333"/>
<path d="M76.3335 23.7129H81.3372H87.9456V35.325H81.3372H76.3335H64.7213V23.7129H76.3335Z" fill="#333333"/>
<path d="M58.9244 12.1024V23.7145V27.614V35.3267H47.3122V27.614V23.7145V12.1024H41.4975V35.3267H47.3122V46.9388V58.551V70.1632H35.7H24.0879V64.3484H12.4757V58.551H0.863586V17.8998H12.4757V12.1024H18.2732V6.28768H24.0879H29.8853V0.490234H35.7H47.3122H51.6258H58.9244V12.1024Z" fill="#333333"/>
</svg>
