<svg width="39" height="39" viewBox="0 0 39 39" fill="none" xmlns="http://www.w3.org/2000/svg">
<g filter="url(#filter0_d)">
<circle cx="19.5" cy="15.5" r="15.5" fill="white"/>
</g>
<g opacity="0.4">
<path d="M18.9516 16.813H20.0374H21.8373H23.6372V18.6129H21.8373H20.0374H18.9516H18.2402V16.813H18.9516Z" fill="#333333"/>
<path d="M17.3391 14.1146V12.3147H19.1389V14.1146V14.6735V15.9145H17.3391V14.6735V14.1146Z" fill="#333333"/>
<path d="M17.3389 12.3148H16.4403V14.1147V15.9145H17.3389V21.3142H16.4403H15.5391H14.6405H13.7392V20.4129H12.8406H11.9393V19.5143H10.1394V13.2161H11.9393V12.3148H12.8406V11.4162H13.7392H14.6405V10.5149H15.5391H17.3389H19.1388V12.3148H17.3389Z" fill="#333333"/>
<path d="M29.0368 11.4161H27.237H26.3383V12.3147H25.4371H24.362H23.6372V13.216H21.8373V14.1146H23.6372H24.5385V15.0132H25.6483H26.3383H27.237V15.9145H29.0368V17.7144H27.237V16.8131H26.3383H25.6483H24.5385V15.9145H23.6372H21.8373H21.059H20.0374V14.6093V13.216V12.8095V12.2157V11.4161H20.8558H21.8373H23.6372V10.5148H24.362H25.4371V9.61621H25.972H27.237H29.0368V11.4161Z" fill="#333333"/>
<path d="M19.1388 19.5142H20.9387H22.7385V21.314H20.9387H19.1388H18.2402V19.5142H19.1388Z" fill="#333333"/>
</g>
<defs>
<filter id="filter0_d" x="0" y="0" width="39" height="39" filterUnits="userSpaceOnUse" color-interpolation-filters="sRGB">
<feFlood flood-opacity="0" result="BackgroundImageFix"/>
<feColorMatrix in="SourceAlpha" type="matrix" values="0 0 0 0 0 0 0 0 0 0 0 0 0 0 0 0 0 0 127 0"/>
<feOffset dy="4"/>
<feGaussianBlur stdDeviation="2"/>
<feColorMatrix type="matrix" values="0 0 0 0 0 0 0 0 0 0 0 0 0 0 0 0 0 0 0.25 0"/>
<feBlend mode="normal" in2="BackgroundImageFix" result="effect1_dropShadow"/>
<feBlend mode="normal" in="SourceGraphic" in2="effect1_dropShadow" result="shape"/>
</filter>
</defs>
</svg>
